<mxfile host="app.diagrams.net" modified="2024-02-25T15:50:25.431Z" agent="Mozilla/5.0 (Windows NT 10.0; Win64; x64) AppleWebKit/537.36 (KHTML, like Gecko) Chrome/121.0.0.0 Safari/537.36 OPR/107.0.0.0" etag="1lIOj-7vGGOYyYgsaqN_" version="23.1.5" type="github">
  <diagram name="Page-1" id="A4Ai2_R7DW5ptEaBGcl3">
    <mxGraphModel dx="1727" dy="924" grid="1" gridSize="10" guides="1" tooltips="1" connect="1" arrows="1" fold="1" page="1" pageScale="1" pageWidth="850" pageHeight="1100" math="0" shadow="0">
      <root>
        <mxCell id="0" />
        <mxCell id="1" parent="0" />
        <mxCell id="ImBMw09rkv26mxz3HkRQ-37" style="edgeStyle=none;rounded=0;orthogonalLoop=1;jettySize=auto;html=1;strokeColor=default;align=center;verticalAlign=middle;fontFamily=Helvetica;fontSize=11;fontColor=default;labelBackgroundColor=default;endArrow=none;endFill=0;" edge="1" parent="1" source="ImBMw09rkv26mxz3HkRQ-1" target="ImBMw09rkv26mxz3HkRQ-24">
          <mxGeometry relative="1" as="geometry" />
        </mxCell>
        <mxCell id="ImBMw09rkv26mxz3HkRQ-1" value="ol9-19-rac1" style="fontColor=#0066CC;verticalAlign=top;verticalLabelPosition=bottom;labelPosition=center;align=center;html=1;outlineConnect=0;fillColor=#CCCCCC;strokeColor=#6881B3;gradientColor=none;gradientDirection=north;strokeWidth=2;shape=mxgraph.networks.desktop_pc;" vertex="1" parent="1">
          <mxGeometry x="162" y="210" width="30" height="60" as="geometry" />
        </mxCell>
        <mxCell id="ImBMw09rkv26mxz3HkRQ-38" style="edgeStyle=none;rounded=0;orthogonalLoop=1;jettySize=auto;html=1;strokeColor=default;align=center;verticalAlign=middle;fontFamily=Helvetica;fontSize=11;fontColor=default;labelBackgroundColor=default;endArrow=none;endFill=0;" edge="1" parent="1" source="ImBMw09rkv26mxz3HkRQ-2" target="ImBMw09rkv26mxz3HkRQ-25">
          <mxGeometry relative="1" as="geometry" />
        </mxCell>
        <mxCell id="ImBMw09rkv26mxz3HkRQ-2" value="ol9-19-rac2" style="fontColor=#0066CC;verticalAlign=top;verticalLabelPosition=bottom;labelPosition=center;align=center;html=1;outlineConnect=0;fillColor=#CCCCCC;strokeColor=#6881B3;gradientColor=none;gradientDirection=north;strokeWidth=2;shape=mxgraph.networks.desktop_pc;" vertex="1" parent="1">
          <mxGeometry x="650" y="210" width="30" height="60" as="geometry" />
        </mxCell>
        <mxCell id="ImBMw09rkv26mxz3HkRQ-3" value="ol9_19_dns" style="fontColor=#0066CC;verticalAlign=top;verticalLabelPosition=bottom;labelPosition=center;align=center;html=1;outlineConnect=0;fillColor=#CCCCCC;strokeColor=#6881B3;gradientColor=none;gradientDirection=north;strokeWidth=2;shape=mxgraph.networks.desktop_pc;" vertex="1" parent="1">
          <mxGeometry x="665" y="592" width="30" height="60" as="geometry" />
        </mxCell>
        <mxCell id="ImBMw09rkv26mxz3HkRQ-4" value="PUBLIC NETWORK" style="fontColor=#0066CC;verticalAlign=top;verticalLabelPosition=bottom;labelPosition=center;align=center;html=1;outlineConnect=0;fillColor=#CCCCCC;strokeColor=#6881B3;gradientColor=none;gradientDirection=north;strokeWidth=2;shape=mxgraph.networks.switch;" vertex="1" parent="1">
          <mxGeometry x="375" y="410" width="100" height="30" as="geometry" />
        </mxCell>
        <mxCell id="ImBMw09rkv26mxz3HkRQ-5" value="192.168.56.0" style="text;html=1;align=center;verticalAlign=middle;whiteSpace=wrap;rounded=0;fillColor=#d5e8d4;strokeColor=#82b366;" vertex="1" parent="1">
          <mxGeometry x="390" y="383" width="77" height="20" as="geometry" />
        </mxCell>
        <mxCell id="ImBMw09rkv26mxz3HkRQ-8" value="PRIVATE NETWORK" style="fontColor=#0066CC;verticalAlign=top;verticalLabelPosition=bottom;labelPosition=center;align=center;html=1;outlineConnect=0;fillColor=#CCCCCC;strokeColor=#6881B3;gradientColor=none;gradientDirection=north;strokeWidth=2;shape=mxgraph.networks.switch;" vertex="1" parent="1">
          <mxGeometry x="375" y="80" width="100" height="30" as="geometry" />
        </mxCell>
        <mxCell id="ImBMw09rkv26mxz3HkRQ-9" value="192.168.1.0" style="text;html=1;align=center;verticalAlign=middle;whiteSpace=wrap;rounded=0;fillColor=#dae8fc;strokeColor=#6c8ebf;" vertex="1" parent="1">
          <mxGeometry x="383" y="50" width="85" height="20" as="geometry" />
        </mxCell>
        <mxCell id="ImBMw09rkv26mxz3HkRQ-12" value="" style="endArrow=none;html=1;rounded=0;exitX=0.5;exitY=0;exitDx=0;exitDy=0;exitPerimeter=0;entryX=0;entryY=0.5;entryDx=0;entryDy=0;entryPerimeter=0;endFill=0;" edge="1" parent="1" source="ImBMw09rkv26mxz3HkRQ-1" target="ImBMw09rkv26mxz3HkRQ-8">
          <mxGeometry width="50" height="50" relative="1" as="geometry">
            <mxPoint x="220" y="190" as="sourcePoint" />
            <mxPoint x="270" y="140" as="targetPoint" />
          </mxGeometry>
        </mxCell>
        <mxCell id="ImBMw09rkv26mxz3HkRQ-13" value="" style="endArrow=none;html=1;rounded=0;exitX=0.5;exitY=0;exitDx=0;exitDy=0;exitPerimeter=0;entryX=1;entryY=0.5;entryDx=0;entryDy=0;entryPerimeter=0;endFill=0;" edge="1" parent="1" source="ImBMw09rkv26mxz3HkRQ-2" target="ImBMw09rkv26mxz3HkRQ-8">
          <mxGeometry width="50" height="50" relative="1" as="geometry">
            <mxPoint x="620" y="130" as="sourcePoint" />
            <mxPoint x="670" y="80" as="targetPoint" />
          </mxGeometry>
        </mxCell>
        <mxCell id="ImBMw09rkv26mxz3HkRQ-14" value="Private:192.168.1.101" style="text;html=1;align=center;verticalAlign=middle;whiteSpace=wrap;rounded=0;rotation=-30;" vertex="1" parent="1">
          <mxGeometry x="240" y="123" width="60" height="30" as="geometry" />
        </mxCell>
        <mxCell id="ImBMw09rkv26mxz3HkRQ-15" value="Private: 192.168.1.102" style="text;html=1;align=center;verticalAlign=middle;whiteSpace=wrap;rounded=0;rotation=30;" vertex="1" parent="1">
          <mxGeometry x="520" y="123" width="133" height="30" as="geometry" />
        </mxCell>
        <mxCell id="ImBMw09rkv26mxz3HkRQ-18" value="" style="endArrow=none;html=1;rounded=0;strokeColor=default;align=center;verticalAlign=middle;fontFamily=Helvetica;fontSize=11;fontColor=default;labelBackgroundColor=default;exitX=1;exitY=0.5;exitDx=0;exitDy=0;exitPerimeter=0;" edge="1" parent="1" source="ImBMw09rkv26mxz3HkRQ-1">
          <mxGeometry width="50" height="50" relative="1" as="geometry">
            <mxPoint x="360" y="320" as="sourcePoint" />
            <mxPoint x="380" y="410" as="targetPoint" />
          </mxGeometry>
        </mxCell>
        <mxCell id="ImBMw09rkv26mxz3HkRQ-19" value="" style="endArrow=none;html=1;rounded=0;strokeColor=default;align=center;verticalAlign=middle;fontFamily=Helvetica;fontSize=11;fontColor=default;labelBackgroundColor=default;exitX=0;exitY=0.5;exitDx=0;exitDy=0;exitPerimeter=0;entryX=0.95;entryY=0.05;entryDx=0;entryDy=0;entryPerimeter=0;" edge="1" parent="1" source="ImBMw09rkv26mxz3HkRQ-2" target="ImBMw09rkv26mxz3HkRQ-4">
          <mxGeometry width="50" height="50" relative="1" as="geometry">
            <mxPoint x="390" y="190" as="sourcePoint" />
            <mxPoint x="570" y="362" as="targetPoint" />
          </mxGeometry>
        </mxCell>
        <mxCell id="ImBMw09rkv26mxz3HkRQ-20" value="Public: 192.168.56.101" style="text;html=1;align=center;verticalAlign=middle;whiteSpace=wrap;rounded=0;rotation=45;" vertex="1" parent="1">
          <mxGeometry x="225.32" y="311" width="162.68" height="30" as="geometry" />
        </mxCell>
        <mxCell id="ImBMw09rkv26mxz3HkRQ-21" value="Public: 192.168.56.102" style="text;html=1;align=center;verticalAlign=middle;whiteSpace=wrap;rounded=0;rotation=-45;" vertex="1" parent="1">
          <mxGeometry x="461" y="307" width="163" height="30" as="geometry" />
        </mxCell>
        <mxCell id="ImBMw09rkv26mxz3HkRQ-24" value="VIP: 192.168.56.103" style="text;html=1;align=center;verticalAlign=middle;whiteSpace=wrap;rounded=0;rotation=0;" vertex="1" parent="1">
          <mxGeometry x="95.66" y="350" width="162.68" height="30" as="geometry" />
        </mxCell>
        <mxCell id="ImBMw09rkv26mxz3HkRQ-25" value="VIP: 192.168.56.104" style="text;html=1;align=center;verticalAlign=middle;whiteSpace=wrap;rounded=0;rotation=0;" vertex="1" parent="1">
          <mxGeometry x="583.66" y="350" width="162.68" height="30" as="geometry" />
        </mxCell>
        <mxCell id="ImBMw09rkv26mxz3HkRQ-26" value="ol9-19-rac1.localdomain&lt;br&gt;ol9-19-rac1-vip.localdomain&lt;br&gt;ol9-19-rac1-priv.localdomain" style="text;html=1;align=left;verticalAlign=middle;whiteSpace=wrap;rounded=0;fontFamily=Helvetica;fontSize=11;labelBackgroundColor=default;" vertex="1" parent="1">
          <mxGeometry y="210" width="155" height="40" as="geometry" />
        </mxCell>
        <mxCell id="ImBMw09rkv26mxz3HkRQ-28" value="ol9-19-rac2.localdomain&lt;br&gt;ol9-19-rac2-vip.localdomain&lt;br&gt;ol9-19-rac2-priv.localdomain" style="text;html=1;align=left;verticalAlign=middle;whiteSpace=wrap;rounded=0;fontFamily=Helvetica;fontSize=11;labelBackgroundColor=default;" vertex="1" parent="1">
          <mxGeometry x="695" y="210" width="155" height="40" as="geometry" />
        </mxCell>
        <mxCell id="ImBMw09rkv26mxz3HkRQ-31" value="Public: 192.168.56.100" style="text;html=1;align=center;verticalAlign=middle;whiteSpace=wrap;rounded=0;rotation=-90;" vertex="1" parent="1">
          <mxGeometry x="625" y="477" width="145" height="30" as="geometry" />
        </mxCell>
        <mxCell id="ImBMw09rkv26mxz3HkRQ-40" style="edgeStyle=none;rounded=0;orthogonalLoop=1;jettySize=auto;html=1;entryX=0.5;entryY=1;entryDx=0;entryDy=0;strokeColor=default;align=center;verticalAlign=middle;fontFamily=Helvetica;fontSize=11;fontColor=default;labelBackgroundColor=default;endArrow=none;endFill=0;exitX=0.75;exitY=0;exitDx=0;exitDy=0;" edge="1" parent="1" source="ImBMw09rkv26mxz3HkRQ-32" target="ImBMw09rkv26mxz3HkRQ-25">
          <mxGeometry relative="1" as="geometry" />
        </mxCell>
        <mxCell id="ImBMw09rkv26mxz3HkRQ-32" value="SCAN_IP_1: 192.168.56.105&lt;br&gt;SCAN_IP_2: 192.168.56.106&lt;br&gt;SCAN_IP_3: 192.168.56.107" style="text;html=1;align=center;verticalAlign=middle;whiteSpace=wrap;rounded=0;fontFamily=Helvetica;fontSize=11;labelBackgroundColor=default;strokeColor=default;" vertex="1" parent="1">
          <mxGeometry x="341.5" y="590" width="170" height="60" as="geometry" />
        </mxCell>
        <mxCell id="ImBMw09rkv26mxz3HkRQ-34" style="edgeStyle=none;rounded=0;orthogonalLoop=1;jettySize=auto;html=1;entryX=0.5;entryY=1;entryDx=0;entryDy=0;strokeColor=default;align=center;verticalAlign=middle;fontFamily=Helvetica;fontSize=11;fontColor=default;labelBackgroundColor=default;endArrow=none;endFill=0;" edge="1" parent="1" source="ImBMw09rkv26mxz3HkRQ-33" target="ImBMw09rkv26mxz3HkRQ-32">
          <mxGeometry relative="1" as="geometry" />
        </mxCell>
        <mxCell id="ImBMw09rkv26mxz3HkRQ-33" value="ol9-19-scan.localdomain" style="text;html=1;align=center;verticalAlign=middle;whiteSpace=wrap;rounded=0;fontFamily=Helvetica;fontSize=11;fontColor=default;labelBackgroundColor=default;fillColor=none;strokeColor=default;" vertex="1" parent="1">
          <mxGeometry x="354" y="720" width="145" height="30" as="geometry" />
        </mxCell>
        <mxCell id="ImBMw09rkv26mxz3HkRQ-41" style="edgeStyle=none;rounded=0;orthogonalLoop=1;jettySize=auto;html=1;entryX=0.5;entryY=1;entryDx=0;entryDy=0;strokeColor=default;align=center;verticalAlign=middle;fontFamily=Helvetica;fontSize=11;fontColor=default;labelBackgroundColor=default;endArrow=none;endFill=0;" edge="1" parent="1" source="ImBMw09rkv26mxz3HkRQ-35" target="ImBMw09rkv26mxz3HkRQ-33">
          <mxGeometry relative="1" as="geometry" />
        </mxCell>
        <mxCell id="ImBMw09rkv26mxz3HkRQ-35" value="Application Server" style="fontColor=#0066CC;verticalAlign=top;verticalLabelPosition=bottom;labelPosition=center;align=center;html=1;outlineConnect=0;fillColor=#CCCCCC;strokeColor=#6881B3;gradientColor=none;gradientDirection=north;strokeWidth=2;shape=mxgraph.networks.pc;fontFamily=Helvetica;fontSize=11;labelBackgroundColor=default;" vertex="1" parent="1">
          <mxGeometry x="376.5" y="810" width="100" height="70" as="geometry" />
        </mxCell>
        <mxCell id="ImBMw09rkv26mxz3HkRQ-36" value="" style="endArrow=none;html=1;rounded=0;strokeColor=default;align=center;verticalAlign=middle;fontFamily=Helvetica;fontSize=11;fontColor=default;labelBackgroundColor=default;entryX=0.5;entryY=0;entryDx=0;entryDy=0;entryPerimeter=0;" edge="1" parent="1" source="ImBMw09rkv26mxz3HkRQ-4" target="ImBMw09rkv26mxz3HkRQ-3">
          <mxGeometry width="50" height="50" relative="1" as="geometry">
            <mxPoint x="370" y="290" as="sourcePoint" />
            <mxPoint x="420" y="240" as="targetPoint" />
            <Array as="points">
              <mxPoint x="680" y="425" />
            </Array>
          </mxGeometry>
        </mxCell>
        <mxCell id="ImBMw09rkv26mxz3HkRQ-39" style="edgeStyle=none;rounded=0;orthogonalLoop=1;jettySize=auto;html=1;entryX=0.463;entryY=1;entryDx=0;entryDy=0;entryPerimeter=0;strokeColor=default;align=center;verticalAlign=middle;fontFamily=Helvetica;fontSize=11;fontColor=default;labelBackgroundColor=default;endArrow=none;endFill=0;" edge="1" parent="1" source="ImBMw09rkv26mxz3HkRQ-32" target="ImBMw09rkv26mxz3HkRQ-24">
          <mxGeometry relative="1" as="geometry" />
        </mxCell>
      </root>
    </mxGraphModel>
  </diagram>
</mxfile>
